<svg width="1544" height="443" viewBox="0 0 1544 443" fill="none" xmlns="http://www.w3.org/2000/svg">
<path d="M1332.04 210.346C1332.04 210.346 1377.48 67.0707 1481.21 47.3086C1562.82 144.772 1468.21 252.415 1468.21 252.415L1350.27 310.204L1332.04 210.346Z" fill="#B0D9C8"/>
<path d="M1384.06 112.884L1417.69 170.374L1478.67 47.6093C1479.42 47.4596 1480.31 47.3099 1481.06 47.1602C1481.36 47.6093 1481.66 47.9087 1481.96 48.3579L1449.22 114.082L1509.01 98.2122C1509.16 98.8111 1509.31 99.4099 1509.46 99.8591L1509.91 101.356L1447.28 117.974L1392.87 227.564L1498.55 203.011C1497.95 204.359 1497.35 205.556 1496.76 206.754L1390.78 231.307L1352.07 309.008L1350.13 310.056L1349.53 306.912L1415.74 173.967L1381.81 115.729C1382.71 114.83 1383.31 113.932 1384.06 112.884Z" fill="white"/>
<path d="M1371.5 270.529C1371.5 270.529 1471.5 195.074 1543.09 239.389C1543.09 411.409 1324.71 423.685 1324.71 423.685L1371.5 270.529Z" fill="#043C5E"/>
<path d="M1542.94 239.236C1542.94 239.835 1542.94 240.584 1542.94 241.182L1400.05 332.657L1487.49 362.45C1486.44 363.348 1485.54 364.097 1484.5 364.995L1396.46 335.052L1340.71 370.834L1342.2 365.893L1450.87 296.277L1466.26 227.708C1467.46 227.559 1468.65 227.259 1469.85 227.109L1454.9 293.732L1541.45 238.338C1541.89 238.637 1542.49 238.937 1542.94 239.236Z" fill="#00666A"/>
<path d="M264.519 193.728C264.519 193.728 257.942 38.1768 150.622 0C22.8247 148.815 169.306 274.274 169.306 274.274L264.519 193.728Z" fill="#63C1C5"/>
<path d="M150.623 0C150.175 0.449139 149.726 1.04799 149.278 1.49713L202.639 176.961L98.3086 130.25C98.3086 131.598 98.4581 132.795 98.4581 133.993L203.835 181.302L219.23 231.905L222.07 229.51L191.429 128.753L233.43 77.4016C232.832 76.3536 232.234 75.1559 231.636 74.1079L190.233 124.711L152.566 0.748564C151.969 0.449139 151.221 0.299426 150.623 0Z" fill="white"/>
<path d="M214.896 175.912C214.896 175.912 112.957 58.9858 6.5339 83.0896C-30.6843 209.148 103.241 272.027 103.241 272.027L238.662 278.016L214.896 175.912Z" fill="#01898C"/>
<path d="M125.509 105.095L117.438 173.514L9.07141 82.4883C8.17459 82.638 7.42723 82.7877 6.53041 82.9374C6.38094 83.3866 6.23147 83.9854 6.082 84.4346L64.0766 133.241L1 142.823C1.14947 143.421 1.14947 144.02 1.29894 144.619L1.44841 146.266L67.6639 136.235L164.371 217.529L54.062 237.89C55.1083 238.938 56.1546 239.837 57.3504 240.735L167.809 220.224L236.416 277.864L238.658 278.013L237.911 274.72L120.576 176.059L128.797 106.891C127.602 106.293 126.555 105.694 125.509 105.095Z" fill="#00666A"/>
<path d="M248.976 371.736C264.52 368.143 279.617 363.053 293.966 356.316L202.341 249.271C202.341 249.271 76.4865 219.029 27.0117 290.592C69.9098 389.252 164.375 399.283 232.384 391.947C233.73 382.665 239.708 373.832 248.976 371.736Z" fill="#B0D9C8"/>
<path d="M27.0117 290.442C27.3107 291.04 27.6096 291.639 27.9085 292.238L200.995 319.935L130.445 384.162C131.791 384.611 132.986 384.91 134.332 385.36L205.33 320.684L272.891 331.463L269.453 327.421L137.919 306.311L95.0208 247.773C93.8251 248.073 92.6293 248.372 91.4335 248.672L133.136 305.563L28.058 288.944C27.7591 289.394 27.3107 289.992 27.0117 290.442Z" fill="white"/>
<path d="M779.746 173.216V256.306C788.864 247.324 801.718 239.539 815.768 241.036C836.395 243.132 853.136 257.205 855.528 277.715C858.517 304.664 837.591 327.57 811.284 327.57C799.028 327.57 787.967 322.629 779.896 314.545V403.774C779.896 424.883 796.935 441.95 818.011 441.95H1039.53C1060.6 441.95 1077.64 424.883 1077.64 403.774V173.216C1077.64 152.106 1060.6 135.039 1039.53 135.039H817.712C796.786 135.039 779.746 152.106 779.746 173.216Z" fill="#83BCB2"/>
<path d="M859.564 279.064C857.471 259.601 839.087 241.486 819.655 239.69C806.054 238.342 793.797 243.133 784.829 251.517V173.067C784.829 151.958 767.789 134.891 746.714 134.891H525.198C504.272 134.891 487.233 151.958 487.083 172.918L486.934 263.195C478.862 253.763 466.905 247.924 453.452 247.924C426.697 247.924 405.472 271.728 409.658 299.275C412.647 318.738 428.341 334.009 447.773 336.404C463.318 338.35 477.667 332.062 486.934 321.433L487.083 403.625C487.083 424.585 504.123 441.652 525.198 441.652H746.714C767.789 441.652 784.829 424.585 784.829 403.476V316.492C792.751 323.978 803.513 328.619 815.321 328.619C841.478 328.769 862.404 306.012 859.564 279.064Z" fill="#F8E39B"/>
<path d="M189.336 173.219V403.777C189.336 424.887 206.376 441.954 227.451 441.954H448.966C470.042 441.954 487.081 424.887 487.081 403.777V321.735C477.814 332.364 463.615 338.652 447.92 336.706C428.489 334.311 412.645 319.04 409.805 299.577C405.62 271.88 426.845 248.226 453.6 248.226C466.903 248.226 478.86 254.214 487.081 263.496V173.369C487.081 152.26 470.042 135.192 448.966 135.192H227.301C206.376 135.043 189.336 152.11 189.336 173.219Z" fill="#0C443C"/>
<path d="M1075.25 173.216V260.498C1066.13 252.564 1053.87 248.222 1040.42 249.869C1019.79 252.264 1003.35 268.733 1001.11 289.393C997.97 316.641 1019.2 339.697 1045.8 339.697C1057.01 339.697 1067.32 335.505 1075.25 328.768V403.774C1075.25 424.883 1092.29 441.95 1113.36 441.95H1335.03C1356.1 441.95 1373.14 424.883 1373.14 403.774V173.216C1373.14 152.106 1356.1 135.039 1335.03 135.039H1113.21C1092.29 135.039 1075.25 152.106 1075.25 173.216Z" fill="#217268"/>
<path d="M675.712 310.957L705.157 310.807C705.157 310.807 702.915 301.824 703.812 294.938C704.111 292.392 705.755 289.997 707.997 288.65C736.845 270.534 729.82 250.024 729.82 250.024C729.82 250.024 726.681 223.824 689.612 221.429C650.152 218.883 652.693 254.066 652.693 254.066C652.693 254.066 651.049 273.678 671.526 286.853C674.516 288.799 676.31 291.943 676.758 295.387C677.655 304.22 675.712 310.957 675.712 310.957Z" fill="white"/>
<path d="M705.16 310.809V321.438C705.16 325.331 702.619 328.624 699.481 328.624L681.544 328.774C678.405 328.774 675.864 325.63 675.715 321.588V310.958L705.16 310.809Z" fill="#63C1C5"/>
<path d="M697.537 328.621L695.594 333.412H684.533L681.992 328.621H697.537Z" fill="#01898C"/>
<path d="M705.009 263.948C709.493 255.564 698.432 251.522 693.201 257.211C692.304 258.259 691.856 259.607 691.856 261.104C691.856 263.649 691.856 267.392 691.856 267.392C690.361 267.092 688.567 266.793 687.222 266.344C687.222 263.948 687.222 261.403 686.475 259.457C683.336 250.324 671.677 257.511 678.553 263.948C680.197 265.445 682.589 266.643 685.13 267.392C685.279 281.914 685.578 296.286 685.727 310.808H687.671C687.521 301.975 687.372 292.993 687.372 284.159C687.372 279.518 687.222 274.877 687.222 270.386C687.222 269.637 687.222 268.889 687.222 268.14C688.717 268.44 690.212 268.739 691.706 268.889L692.005 310.808H693.948L693.649 269.038C694.098 269.038 694.546 269.038 694.845 269.038C698.731 268.889 703.066 267.541 705.009 263.948ZM685.13 265.745C682.29 264.847 678.254 262.9 677.955 260.056C677.805 259.307 678.104 258.708 678.702 258.259C683.635 253.768 685.13 261.852 685.13 262.751C685.13 263.799 685.13 264.697 685.13 265.745ZM703.215 263.649C700.973 267.092 697.386 267.991 693.649 267.691V261.253C693.649 260.056 694.098 258.858 694.995 258.109C696.489 256.612 699.18 254.965 702.468 256.612C704.561 257.96 704.86 261.253 703.215 263.649Z" fill="#FFD247"/>
<path d="M651.649 214.544C652.247 213.945 652.247 212.897 651.649 212.298L636.702 197.476C636.104 196.878 635.058 196.878 634.46 197.476C633.862 198.075 633.862 199.123 634.46 199.722L649.407 214.544C650.155 215.143 651.051 215.143 651.649 214.544Z" fill="white"/>
<path d="M717.265 214.088C716.667 213.489 716.667 212.441 717.265 211.842L732.062 196.871C732.66 196.272 733.707 196.272 734.305 196.871C734.902 197.47 734.902 198.518 734.305 199.117L719.507 214.088C718.909 214.687 717.863 214.687 717.265 214.088Z" fill="white"/>
<path d="M689.168 208.854C690.064 208.854 690.662 208.105 690.662 207.357L690.513 186.247C690.513 185.349 689.765 184.75 689.018 184.75C688.121 184.75 687.523 185.499 687.523 186.247L687.673 207.357C687.523 208.105 688.271 208.854 689.168 208.854Z" fill="white"/>
<path d="M234.775 436.563H232.832C236.419 412.16 240.007 387.607 243.444 363.952C245.836 347.933 248.227 331.465 250.619 314.996L252.562 315.296C250.171 331.614 247.779 348.232 245.388 364.252C242.099 387.757 238.512 412.16 234.775 436.563Z" fill="#212B53"/>
<path d="M292.322 436.563H290.379C293.966 412.16 297.553 387.607 300.991 363.952C303.383 347.933 305.774 331.465 308.166 314.996L310.109 315.296C307.717 331.614 305.326 348.232 302.934 364.252C299.497 387.757 295.909 412.16 292.322 436.563Z" fill="#212B53"/>
<path d="M234.625 361.706C251.366 327.272 251.366 260.051 251.366 260.051L267.21 361.706H234.625Z" fill="#E4CDE5"/>
<path d="M342.54 440.456C336.411 401.082 331.03 363.054 325.201 322.782L323.258 318.44L325.201 318.141L327.144 322.482C332.824 362.755 338.354 400.932 344.483 440.456H342.54Z" fill="#212B53"/>
<path d="M279.163 440.456C275.426 415.903 271.839 391.2 268.401 367.396C266.01 351.377 263.618 334.908 261.227 318.44L263.17 318.141C265.561 334.459 267.953 351.077 270.344 367.097C273.782 391.051 277.369 415.903 281.106 440.456H279.163Z" fill="#212B53"/>
<path d="M243.895 363.65L255.553 286.398L271.248 358.261L269.155 363.65H243.895Z" fill="#212B53"/>
<path d="M323.262 256.156C307.866 253.611 251.367 257.354 251.367 257.354C251.367 257.354 249.722 334.756 267.958 360.806C286.492 360.806 344.038 360.806 344.038 360.806C344.038 360.806 321.169 310.951 323.262 256.156Z" fill="url(#paint0_linear)"/>
<path d="M341.796 360.805L339.105 365.446L268.406 365.596L267.359 360.805H341.796Z" fill="#212B53"/>
<path d="M323.109 254.359L322.362 259.15H251.662L251.363 254.359H323.109Z" fill="#212B53"/>
<path d="M256.596 256.757C256.596 258.554 255.102 260.051 253.308 260.051C251.514 260.051 250.02 258.554 250.02 256.757C250.02 254.961 251.514 253.463 253.308 253.463C255.102 253.314 256.596 254.811 256.596 256.757Z" fill="#212B53"/>
<path d="M326.698 256.757C326.698 258.554 325.203 260.051 323.409 260.051C321.616 260.051 320.121 258.554 320.121 256.757C320.121 254.961 321.616 253.463 323.409 253.463C325.203 253.314 326.698 254.811 326.698 256.757Z" fill="#212B53"/>
<path d="M274.98 339.847H266.012L266.311 309.605H276.026L274.98 339.847Z" fill="#63C1C5"/>
<path d="M289.928 339.853H280.212L278.867 294.34H289.928V339.853Z" fill="#01898C"/>
<path d="M303.68 302.574H293.965V339.853H303.68V302.574Z" fill="#EB5768"/>
<path d="M303.68 339.853H293.965V302.574H304.727L303.68 339.853Z" fill="#63C1C5"/>
<path d="M317.43 339.85H307.715V280.863H320.27L317.43 339.85Z" fill="#043C5E"/>
<path d="M219.673 430.277C219.673 430.277 217.58 431.325 217.58 433.272C217.58 435.218 217.281 439.56 217.281 439.56L219.224 439.859L219.822 435.817C219.822 435.517 223.26 440.009 225.502 442.254L233.872 442.404C233.872 442.404 235.068 439.859 229.388 437.913C223.559 436.116 219.673 430.277 219.673 430.277Z" fill="#00666A"/>
<path d="M226.398 397.039C226.398 395.692 226.548 393.297 226.846 391.949C227.743 387.158 229.836 383.415 231.032 381.469C233.124 380.721 235.067 379.822 237.16 378.924C239.402 378.026 241.644 377.577 244.484 376.828C244.335 377.128 244.335 377.427 244.185 377.726C232.078 409.765 225.202 424.437 224.156 427.88C224.007 428.479 223.857 428.928 223.857 429.527C224.007 431.174 224.754 434.767 229.686 438.21C224.455 439.558 219.672 430.276 219.672 430.276C219.672 430.276 226.099 408.118 226.398 397.039Z" fill="#F4A086"/>
<path d="M251.512 267.237L250.914 275.921L242.395 274.124L243.441 262.297L251.512 267.237Z" fill="#F4A086"/>
<path d="M253.455 267.237C254.651 267.237 255.847 266.938 256.445 266.488C260.032 260.799 255.996 245.379 255.996 245.379L242.992 247.774L242.544 258.105C242.394 260.799 243.59 263.494 245.832 265.291C248.074 266.488 250.765 267.387 253.455 267.237Z" fill="#F8B68F"/>
<path d="M245.083 433.27C245.083 433.27 243.289 434.617 243.588 436.414C243.887 438.21 244.336 442.402 244.336 442.402H246.129V438.509C246.129 438.21 250.016 442.402 250.763 442.402H260.478C260.478 442.402 261.076 439.707 255.396 438.959C249.717 438.06 245.083 433.27 245.083 433.27Z" fill="#00666A"/>
<path d="M240.151 400.183C239.703 398.836 239.105 396.59 238.806 395.243C238.059 390.452 237.909 383.565 238.358 381.319C240.002 379.972 242.094 381.02 243.888 379.523C245.682 378.026 247.625 376.678 250.016 375.031C250.016 375.331 250.016 375.63 250.016 375.93C249.717 410.214 248.372 426.383 248.671 429.976C248.671 430.575 250.315 437.611 255.995 439.108C251.661 442.103 244.934 433.419 244.934 433.419C244.934 433.419 243.739 410.513 240.151 400.183Z" fill="#F8B68F"/>
<path d="M250.912 274.425L259.133 287.749C260.18 289.845 260.329 292.24 259.881 294.636L254.649 317.392C254.35 318.74 254.201 320.087 254.201 321.434L253.005 381.32H226.848C226.848 381.32 230.136 369.492 231.78 354.222C233.424 338.951 228.641 332.363 229.987 325.626C230.734 321.734 233.125 316.644 236.414 312.601C238.207 310.505 239.104 307.811 239.104 304.966C239.403 293.588 227.595 262.448 238.805 269.933C250.165 277.718 250.912 274.425 250.912 274.425Z" fill="#01898C"/>
<path d="M251.36 308.258L251.958 310.504C252.257 311.701 252.706 312.15 253.752 313.797C256.592 318.588 266.308 330.415 266.308 330.415L274.08 334.907C274.08 334.907 273.931 336.104 272.137 335.655C270.343 335.356 268.998 334.308 268.998 334.308C268.998 334.308 268.699 335.655 270.343 338.2C271.539 340.147 275.425 343.44 272.735 344.039C270.343 342.991 267.354 341.045 267.354 341.045C266.009 340.296 264.962 338.949 264.663 337.302L263.916 333.11L247.325 319.486C245.531 317.989 244.036 315.893 243.289 313.647V313.498L251.36 308.258Z" fill="#F8B68F"/>
<path d="M296.65 294.634C297.098 294.634 298.444 294.634 300.686 293.137C302.778 291.94 306.216 287.897 306.963 290.592C305.917 292.988 304.871 296.132 304.871 296.132C304.124 297.479 301.583 298.527 299.938 298.826L294.557 299.126C294.557 299.126 292.614 297.18 292.465 297.03L293.063 295.982C294.408 295.832 295.604 295.383 296.65 294.634Z" fill="#F8B68F"/>
<path d="M243.293 314.249L251.813 308.41L248.674 285.504L247.777 285.654L251.066 308.111L243.742 312.901L238.361 294.786L237.613 294.936L243.293 314.249Z" fill="#00666A"/>
<path d="M246.73 251.517C249.271 252.865 251.812 253.164 253.755 253.164C256.296 253.015 259.585 250.919 260.631 248.673C261.528 246.727 261.677 244.631 258.688 242.385C256.595 240.888 254.054 241.786 252.859 242.834C251.962 243.583 250.766 243.583 250.019 242.984C248.374 241.636 245.535 239.84 241.2 239.84C236.716 239.84 236.865 244.182 237.463 247.475C237.912 249.421 237.015 251.368 235.371 252.416C232.68 254.063 229.242 256.757 229.99 259.452C230.587 261.698 231.783 263.644 232.979 265.141C234.175 266.638 234.175 268.585 232.979 270.082C231.335 272.328 229.392 275.472 229.99 277.867C230.587 280.113 232.232 282.807 233.427 284.903C234.324 286.401 234.324 288.197 233.427 289.694C232.68 290.892 232.082 292.389 232.531 294.036C232.83 295.383 233.427 296.581 234.175 297.629C235.371 299.426 238.061 299.126 239.107 297.18C242.097 291.191 247.328 278.915 245.385 269.633C244.488 264.992 243.292 256.608 243.292 256.608C243.292 256.608 242.097 249.421 246.73 251.517Z" fill="#212B53"/>
<path d="M253.457 302.12L263.472 307.36C264.667 307.959 266.162 308.108 267.507 307.809L294.86 299.125V295.682L268.105 298.976L259.735 294.484L253.457 302.12Z" fill="#F8B68F"/>
<path d="M241.648 253.913C242.395 253.164 243.74 253.314 244.637 254.212C245.534 255.111 245.833 256.308 245.086 257.057C244.338 257.805 242.993 257.656 242.096 256.757C241.199 255.859 241.05 254.661 241.648 253.913Z" fill="#F8B68F"/>
<path d="M251.363 301.224L254.054 284.156L265.862 297.78L262.574 308.41L251.363 302.571C251.812 301.224 251.513 302.421 251.363 301.224Z" fill="#01898C"/>
<path d="M256.293 310.205C255.994 309.905 255.994 309.905 255.695 309.755L259.432 294.485C259.88 292.239 259.731 289.993 258.685 288.047L250.613 274.872C250.912 274.723 250.763 274.723 250.912 274.423C250.912 274.423 251.211 274.423 251.361 274.273L259.582 287.598C260.628 289.844 260.927 292.389 260.329 294.784" fill="#63C1C5"/>
<path d="M297.997 295.084C297.997 295.084 298.146 295.084 298.445 295.233C298.296 295.533 298.146 295.832 297.997 296.132C296.95 296.88 296.054 297.779 295.007 298.527C294.559 297.779 294.11 296.88 293.961 296.88L299.342 290.293C299.342 290.293 300.388 290.592 299.79 292.389C299.192 294.036 297.997 295.084 297.997 295.084Z" fill="#F8B68F"/>
<path d="M348.821 261.847C349.419 263.345 349.569 264.991 349.12 266.489L348.223 272.477L347.177 273.226L343.291 274.872C343.739 273.675 343.291 272.477 343.291 272.477L341.647 266.189C341.647 266.189 338.956 255.709 346.131 256.158C346.131 247.625 348.522 248.972 348.522 248.972L348.672 256.308L348.821 261.847Z" fill="#F8B68F"/>
<path d="M366.609 282.658C366.609 282.658 361.676 301.672 357.341 301.971C353.156 302.271 348.672 271.879 348.672 271.879L342.843 272.627C342.843 272.627 340.601 316.493 353.605 317.242C366.609 317.99 368.253 308.409 368.253 308.409L366.609 282.658Z" fill="#FFDB71"/>
<path d="M367.058 334.757H400.988C400.988 334.757 400.988 310.054 400.988 283.256C391.272 268.434 379.314 272.476 379.314 272.476C379.314 272.476 368.403 272.626 366.609 282.806C366.609 289.993 367.058 334.757 367.058 334.757Z" fill="#F7A605"/>
<path d="M383.2 265.59L383.648 272.926L383.349 273.225C380.957 275.471 377.221 275.621 374.829 273.375L374.68 267.836L383.2 265.59Z" fill="#F4A086"/>
<path d="M385.881 250.316L385.284 262.293C384.088 262.293 383.34 263.491 383.639 264.689C383.49 264.988 383.49 265.288 383.49 265.587C381.397 267.084 377.661 269.031 372.728 268.132C365.105 266.635 369.739 251.963 369.739 251.963L385.881 250.316Z" fill="#F8B68F"/>
<path d="M389.622 259.451C389.622 258.553 390.817 256.757 391.565 256.158C395.899 252.415 392.013 249.72 390.668 248.822C389.173 247.924 389.472 245.079 387.529 243.582C384.54 241.186 381.7 243.732 379.757 243.282C377.813 242.983 376.618 240.438 373.927 241.785C371.087 243.133 371.386 245.378 370.489 246.277C369.593 247.175 367.948 244.63 365.258 247.624C361.073 252.116 369.294 253.912 369.294 253.912C369.294 253.912 373.778 255.709 379.607 253.463C380.354 253.164 381.401 253.313 381.849 254.062C383.194 256.008 383.194 266.039 383.194 266.039L385.138 264.392C385.138 264.242 389.472 263.494 389.622 259.451Z" fill="#212B53"/>
<path d="M385.136 260.347C384.687 261.245 383.641 261.695 382.744 261.395C381.847 260.946 381.399 259.898 381.698 259C381.997 258.101 383.192 257.652 384.089 257.952C384.986 258.401 385.434 259.449 385.136 260.347Z" fill="#F8B68F"/>
<path d="M374.827 431.918C374.827 431.918 372.884 434.613 363.916 436.858C361.973 437.308 359.73 437.757 359.73 441.05C363.916 441.05 368.549 441.05 368.549 441.05L377.667 439.404V441.05H382.599C382.599 441.05 383.945 432.966 381.105 431.918C378.414 431.918 374.827 431.918 374.827 431.918Z" fill="#212B53"/>
<path d="M374.23 426.082L374.679 431.921C376.473 433.119 378.864 433.268 380.658 432.071L380.957 431.921V426.082H374.23Z" fill="#F8B68F"/>
<path d="M399.944 431.918C399.944 431.918 398.001 434.613 389.033 436.858C387.09 437.308 384.848 437.757 384.848 441.05C389.033 441.05 393.666 441.05 393.666 441.05L402.784 439.404V441.05H407.717C407.717 441.05 409.062 432.966 406.222 431.918C403.681 431.918 399.944 431.918 399.944 431.918Z" fill="#212B53"/>
<path d="M399.496 426.082L399.945 431.921C401.738 433.119 404.13 433.268 405.923 432.071L406.222 431.921V426.082H399.496Z" fill="#F8B68F"/>
<path d="M400.988 283.258C400.988 283.258 411.152 306.763 398.148 318.74C385.144 330.717 367.656 328.621 367.656 328.621V321.884C367.656 321.884 383.5 320.536 388.582 309.907C393.664 299.277 386.49 289.995 386.49 289.995" fill="#F7A605"/>
<path d="M368.702 327.722L360.631 327.872C357.343 327.723 355.101 322.782 354.652 319.039C354.503 318.44 355.101 317.991 355.698 318.291C358.389 319.189 365.563 321.734 367.357 322.932L368.702 327.722Z" fill="#F8B68F"/>
<path d="M367.059 334.762C356.895 363.357 372.739 426.536 372.739 426.536H381.707C381.707 426.536 377.522 336.858 389.181 334.762C371.394 334.762 374.832 334.762 367.059 334.762Z" fill="#00666A"/>
<path d="M390.374 302.719C390.225 304.964 389.776 307.36 388.581 309.755C383.499 320.385 366.758 321.882 366.758 321.882V328.769C366.758 328.769 385.143 330.715 398.147 318.738C402.78 314.396 404.424 308.558 404.723 302.868H390.374V302.719Z" fill="#FFDB71"/>
<path d="M390.373 303.767C390.672 303.617 391.121 303.468 391.42 303.318C392.018 295.383 387.384 289.544 387.384 289.395L386.637 289.993C386.637 290.143 391.121 296.132 390.373 303.767Z" fill="#F18812"/>
<path d="M347.328 262.748C347.328 262.748 349.271 262.149 349.421 258.706C349.72 255.262 351.364 256.31 351.364 256.31C351.364 256.31 350.467 269.784 348.374 270.233C346.282 270.982 347.328 262.748 347.328 262.748Z" fill="#F8B68F"/>
<path d="M377.073 334.762C374.383 369.795 396.654 426.536 396.654 426.536H407.416C407.416 426.536 400.092 390.155 399.942 356.171C399.942 348.835 400.241 341.499 400.988 334.762C393.515 334.762 383.799 334.762 377.073 334.762Z" fill="#01898C"/>
<path d="M690.661 333.406V336.55C690.661 348.827 680.646 358.857 668.389 358.857H625.043" stroke="white" stroke-miterlimit="10"/>
<path d="M650.006 432.969C650.006 432.969 653.294 435.963 660.917 437.909C662.561 438.358 664.355 437.76 664.355 440.454C660.767 440.454 655.088 440.454 655.088 440.454L647.465 439.107V440.454H643.279C643.279 440.454 642.084 433.717 644.475 432.969C646.867 432.969 650.006 432.969 650.006 432.969Z" fill="#212B53"/>
<path d="M649.556 428.18L650.004 432.971C648.51 434.019 646.567 434.018 644.922 433.12L644.623 432.971L643.727 428.18H649.556Z" fill="#F8B68F"/>
<path d="M689.466 432.969C689.466 432.969 692.755 435.963 700.378 437.909C702.022 438.358 703.816 437.76 703.816 440.454C700.228 440.454 694.549 440.454 694.549 440.454L686.926 439.107V440.454H682.74C682.74 440.454 681.545 433.717 683.936 432.969C686.328 432.969 689.466 432.969 689.466 432.969Z" fill="#212B53"/>
<path d="M687.526 428.18L689.469 432.971C687.974 434.019 686.031 434.018 684.387 433.12L684.088 432.971L680.949 428.18H687.526Z" fill="#F8B68F"/>
<path d="M553.595 440.611L568.392 389.708L566.3 389.109L551.203 440.611H553.595Z" fill="white"/>
<path d="M623.103 440.607L608.007 389.105L605.914 389.704L620.712 440.607H623.103Z" fill="#FFDB71"/>
<path d="M567.35 302.874L564.66 311.407L555.691 308.114L562.866 296.137L567.35 302.874Z" fill="#F4A086"/>
<path d="M569.447 305.573C570.493 306.022 571.54 306.172 572.137 306.022C576.92 303.028 578.415 290.003 578.415 290.003L574.529 285.961L566.906 287.159L563.319 294.794C562.422 296.89 562.571 299.285 563.767 301.232C565.262 303.178 567.205 304.675 569.447 305.573Z" fill="#F8B68F"/>
<path d="M566.001 291.945C566.898 290.747 567.944 287.753 569.14 288.501C570.037 289.1 573.325 290.597 574.372 291.046C577.062 292.094 582.144 293.142 583.938 289.1C584.835 287.004 583.489 284.459 582.593 283.411C581.546 282.363 580.201 281.764 578.706 281.764C575.418 281.614 570.485 282.213 569.14 281.165C566.749 279.518 563.46 279.968 562.563 282.213C561.667 284.609 561.368 288.651 561.517 291.495C561.667 293.142 562.115 294.639 562.713 296.137L566.001 291.945Z" fill="#212B53"/>
<path d="M563.164 291.047C563.911 290.747 565.107 291.346 565.556 292.244C566.004 293.292 565.855 294.191 564.958 294.49C564.21 294.789 563.015 294.191 562.566 293.292C562.118 292.394 562.417 291.346 563.164 291.047Z" fill="#F8B68F"/>
<path d="M550.161 315L522.359 328.025C522.359 328.025 543.883 390.006 581.55 396.144C619.216 402.283 641.637 384.916 643.729 384.018C589.771 368.747 550.161 315 550.161 315Z" fill="#F7A605"/>
<path d="M550.161 315L522.359 328.025C522.359 328.025 546.873 384.018 584.539 390.156C622.206 396.294 642.384 384.916 643.729 384.018C587.379 368.298 550.161 315 550.161 315Z" fill="#F7A605"/>
<path d="M593.656 357.364L635.358 356.766C639.095 356.766 642.384 359.46 642.832 363.353L650.007 429.676H643.729C643.729 429.676 628.782 397.937 631.323 381.468C633.714 365 573.328 367.545 573.328 367.545L593.656 357.364Z" fill="#00666A"/>
<path d="M555.989 307.061C530.878 332.662 563.015 377.277 563.015 377.277L593.656 357.365C581.997 336.854 581.399 335.656 565.107 308.109C563.164 304.816 558.68 304.217 555.989 307.061Z" fill="url(#paint1_linear)"/>
<path d="M613.536 342.848C613.536 342.249 613.237 341.8 612.639 341.65L607.408 340.003C606.063 339.554 604.717 339.704 603.522 340.303L598.738 342.548L598.141 342.698V347.339C599.037 346.89 599.635 346.591 599.635 346.591L602.625 345.094C602.625 345.094 610.098 350.034 611.892 344.495C613.237 349.585 614.582 348.836 614.582 348.836L613.536 342.848Z" fill="#F8B68F"/>
<path d="M558.234 312.305C544.483 312.305 545.529 342.846 546.875 357.518C547.323 361.86 551.359 365.153 555.693 364.405C575.872 361.111 600.385 346.888 600.385 346.888L598.591 342.547L562.868 349.583C563.017 349.583 575.872 312.305 558.234 312.305Z" fill="url(#paint2_linear)"/>
<path d="M598.887 342.094L563.612 349.13C564.509 346.435 567.947 335.356 567.947 326.074C567.648 326.224 567.499 326.374 567.2 326.523C567.05 336.854 562.865 349.28 562.715 349.579L562.566 350.178L598.588 343.141L600.083 346.884C597.243 348.531 574.524 361.107 555.84 364.101C553.897 364.401 551.804 363.952 550.309 362.754C548.665 361.556 547.619 359.76 547.469 357.664C547.021 353.771 546.423 345.387 546.872 337.003C546.573 337.153 546.423 337.153 546.124 337.153C545.676 345.537 546.423 353.771 546.722 357.664C546.872 359.909 548.067 362.005 549.861 363.353C551.356 364.401 553 365 554.644 365C555.092 365 555.541 365 555.989 364.85C575.869 361.556 600.532 347.483 600.83 347.333L601.129 347.184L598.887 342.094Z" fill="#63C1C5"/>
<path d="M563.016 377.28C563.016 377.28 569.742 392.102 597.992 392.102C626.242 392.102 645.523 382.071 645.523 382.071C645.523 382.071 653.894 403.48 681.994 429.68C688.72 429.68 688.72 429.68 688.72 429.68L660.321 370.842C657.78 365.602 652.399 362.458 646.57 362.758L580.055 366.351L563.016 377.28Z" fill="#01898C"/>
<path d="M559.726 301.375L566.153 306.914L565.705 309.01L556.438 306.615L559.726 301.375Z" fill="white"/>
<path d="M624.894 358.864H592.16V356.619H623.549L640.589 321.586L642.532 322.484L624.894 358.864Z" fill="#043C5E"/>
<path d="M609.037 396.775L553.688 433.18L554.508 434.431L609.857 398.027L609.037 396.775Z" fill="white"/>
<path d="M565.703 396.799L564.883 398.051L620.239 434.449L621.059 433.197L565.703 396.799Z" fill="white"/>
<path d="M912.327 103.902L915.914 112.885L909.935 128.156L903.508 107.196L912.327 103.902Z" fill="#F8B68F"/>
<path d="M818.458 81.7461L813.226 93.5734L808.145 124.414C808.145 124.414 812.031 124.414 813.226 124.414C826.38 109.892 826.38 83.3929 826.38 83.3929L818.458 81.7461Z" fill="#63C1C5"/>
<path d="M861.956 134.445H805.456C801.869 134.445 799.179 131.301 799.627 127.708L805.755 79.9492H813.827C813.827 79.9492 815.471 93.4234 815.62 100.909C816.368 109.143 811.585 121.719 811.585 121.719C811.585 121.719 839.237 104.802 851.045 105.999C860.312 107.197 862.704 105.4 862.704 105.4L861.956 134.445Z" fill="#B0D9C8"/>
<path d="M898.577 92.0728C898.577 92.0728 906.649 91.0248 912.329 103.75C909.937 106.745 906.499 108.541 906.499 108.541C906.499 108.541 907.097 117.823 903.809 119.919C900.52 122.015 880.641 134.442 880.641 134.442H861.957V109.439L888.114 91.3242L898.577 92.0728Z" fill="#01898C"/>
<path d="M891.701 84.5859C890.506 84.5859 892.15 92.371 892.15 92.371C892.15 92.371 892.299 103.899 896.335 103.899C900.969 103.899 900.969 92.0716 900.969 92.0716V88.9276C900.819 88.9276 892.897 84.5859 891.701 84.5859Z" fill="#F4A086"/>
<path d="M899.922 91.1789C900.968 91.3286 902.164 91.3286 902.762 91.0292C906.947 86.5378 906.947 72.0156 906.947 72.0156H893.793L891.701 81.1481C891.103 83.5435 891.85 86.0886 893.494 88.0349C895.138 89.6817 897.381 90.8795 899.922 91.1789Z" fill="#F8B68F"/>
<path d="M858.966 89.9812C869.429 84.2921 876.155 87.1367 879.742 85.6396C885.572 83.0944 888.711 65.1289 898.875 66.1769C909.039 67.0752 909.039 73.962 909.039 73.962C909.039 73.962 911.281 79.8008 897.23 78.4533C894.988 78.3036 892.148 79.5013 891.999 81.747C891.849 87.4361 892.148 92.3766 892.148 92.3766C892.148 92.3766 881.685 95.6703 877.65 99.4131C873.614 103.156 866.439 122.02 854.781 122.02C843.72 121.122 841.926 99.2634 858.966 89.9812Z" fill="#212B53"/>
<path d="M871.668 111.387L882.281 117.675L877.498 126.508C876.302 128.005 877.348 129.203 879.291 129.203L905.598 129.801V134.592C905.598 134.592 869.426 134.592 864.643 134.592C860.01 134.442 871.668 111.387 871.668 111.387Z" fill="#F8B68F"/>
<path d="M947.903 109.445H911.133L899.176 134.447H935.946L947.903 109.445Z" fill="#212B53"/>
<path d="M935.944 132.199H888.711V134.445H935.944V132.199Z" fill="#212B53"/>
<path d="M925.18 118.575C925.18 119.324 925.778 120.072 926.674 120.072C927.422 120.072 928.169 119.474 928.169 118.575C928.169 117.827 927.571 117.078 926.674 117.078C925.778 117.078 925.18 117.827 925.18 118.575Z" fill="#EFEEEE"/>
<path d="M806.652 79.9469L807.998 72.6109L809.044 72.3115C809.791 72.1618 810.539 72.1618 811.136 72.3115L812.631 72.6109V79.9469H806.652Z" fill="#F8B68F"/>
<path d="M807.994 72.7644L801.716 64.5301C800.67 63.1827 799.922 61.5359 800.969 59.889C800.969 59.889 801.716 58.8411 802.613 57.9428C803.36 57.7931 814.421 69.9198 814.421 69.9198V70.0695C814.421 71.5667 813.375 72.9141 811.282 72.9141L807.994 72.7644Z" fill="#F7A605"/>
<path d="M802.766 57.9426L814.574 69.9196L815.022 69.1711L803.214 57.3438L802.766 57.9426Z" fill="white"/>
<path d="M807.702 68.8135L805.996 70.0273L806.602 70.8818L808.308 69.668L807.702 68.8135Z" fill="white"/>
<path d="M806.112 66.5447L804.277 67.8359L804.879 68.6933L806.713 67.402L806.112 66.5447Z" fill="white"/>
<path d="M823.243 76.0571L819.955 66.176C819.357 64.6789 819.208 62.7326 820.702 61.5349C820.702 61.5349 821.749 60.7864 822.795 60.1875C823.542 60.3372 830.268 75.3085 830.268 75.3085V75.4582C829.67 76.8056 828.325 77.8536 826.382 77.2548L823.243 76.0571Z" fill="#F7A605"/>
<path d="M822.945 60.3385L830.269 75.4595L831.017 74.8606L823.543 60.0391L822.945 60.3385Z" fill="white"/>
<path d="M824.236 72.1417L822.234 72.7539L822.54 73.7562L824.541 73.144L824.236 72.1417Z" fill="white"/>
<path d="M823.487 69.5812L821.34 70.2266L821.641 71.2303L823.788 70.5849L823.487 69.5812Z" fill="white"/>
<path d="M819.953 82.0445L823.242 75.9062L827.726 77.5531L825.633 83.2422L819.953 82.0445Z" fill="#F8B68F"/>
<path d="M1301.99 434.617C1301.99 434.617 1300.5 436.713 1293.47 438.51C1291.98 438.959 1290.34 439.109 1290.34 441.654C1293.62 441.654 1297.21 441.654 1297.21 441.654L1304.24 440.456V441.654H1307.97C1307.97 441.654 1309.02 435.366 1306.78 434.617C1304.83 434.617 1301.99 434.617 1301.99 434.617Z" fill="#212B53"/>
<path d="M1301.55 430.125L1301.85 434.616C1303.19 435.515 1305.13 435.664 1306.48 434.766L1306.78 434.616V430.125H1301.55Z" fill="#F8B68F"/>
<path d="M1337.27 435.516C1337.27 435.516 1335.77 437.612 1328.75 439.408C1327.25 439.857 1325.61 440.007 1325.61 442.552C1328.9 442.552 1332.49 442.552 1332.49 442.552L1339.51 441.354V442.552H1343.25C1343.25 442.552 1344.29 436.264 1342.05 435.516C1340.26 435.516 1337.27 435.516 1337.27 435.516Z" fill="#212B53"/>
<path d="M1336.97 431.023L1337.27 435.515C1338.61 436.413 1340.56 436.563 1341.9 435.665L1342.2 435.515V431.023H1336.97Z" fill="#F8B68F"/>
<path d="M1298.86 319.937L1300.5 432.521H1308.72C1308.72 432.521 1321.13 341.646 1318.59 319.937C1315.9 298.229 1298.86 319.937 1298.86 319.937Z" fill="#212B53"/>
<path d="M1307.37 319.938C1307.37 319.938 1310.21 354.521 1316.79 373.684C1323.36 392.848 1335.17 432.522 1335.17 432.522H1343.69C1343.69 432.522 1329.49 349.581 1332.78 319.938H1307.37Z" fill="#043C5E"/>
<path d="M1300.05 262.598C1300.05 262.598 1289.89 286.103 1287.35 286.103C1285.26 286.103 1288.1 266.79 1288.1 266.79H1279.58C1279.58 266.79 1268.96 299.726 1277.33 305.865C1285.85 311.853 1304.39 288.797 1304.39 288.797L1300.05 262.598Z" fill="#63C1C5"/>
<path d="M1330.09 322.93L1327.1 330.565C1325.61 333.559 1320.23 333.559 1316.64 332.661C1316.04 332.511 1315.89 331.912 1316.34 331.463C1318.29 329.367 1323.37 323.678 1325.16 322.48L1330.09 322.93Z" fill="#F8B68F"/>
<path d="M1308.42 257.656C1305.13 257.656 1302 259.303 1300.35 262.148C1299.75 263.196 1299.3 264.244 1299.3 265.441C1299.3 269.484 1299.3 319.937 1299.3 319.937H1330.25V269.034C1330.25 269.034 1329.65 257.656 1318.59 257.656C1313.8 257.656 1310.52 257.656 1308.42 257.656Z" fill="#63C1C5"/>
<path d="M1299.75 319.94V270.984L1298.86 271.134V319.94H1299.75Z" fill="url(#paint3_linear)"/>
<path d="M1319.78 247.328L1316.49 259.754C1316.49 259.754 1313.65 262 1309.92 261.102C1306.18 260.054 1306.93 257.359 1306.93 257.359L1309.02 249.424H1314.85L1319.78 247.328Z" fill="#F4A086"/>
<path d="M1307.82 251.666C1306.63 251.366 1305.73 250.917 1305.28 250.168C1303.34 244.03 1310.96 230.855 1310.96 230.855L1322.32 236.245L1320.23 245.827C1319.63 248.372 1317.84 250.618 1315.45 251.666C1313.05 252.264 1310.36 252.414 1307.82 251.666Z" fill="#F8B68F"/>
<path d="M1323.97 231.756C1321.88 229.809 1320.68 230.259 1316.79 229.809C1311.11 229.211 1308.27 226.965 1308.27 226.965C1308.27 226.965 1304.39 230.857 1308.42 232.804C1312.46 234.6 1316.64 235.049 1316.64 235.049L1313.8 246.577C1314.7 247.176 1315.45 247.775 1316.05 248.523L1317.84 241.936C1317.99 241.188 1318.59 240.589 1319.33 240.439C1319.93 240.289 1320.83 240.439 1321.13 241.786C1320.53 244.182 1318.89 250.619 1318.74 251.667C1318.74 251.667 1318.74 251.817 1318.89 251.817L1319.48 251.967L1324.57 239.99C1324.42 239.99 1326.66 234.301 1323.97 231.756Z" fill="#212B53"/>
<path d="M1281.37 266.937L1281.67 265.29C1282.27 261.697 1285.71 257.206 1289.29 256.008H1292.88L1291.83 263.643L1286.75 266.787H1281.37V266.937Z" fill="#F8B68F"/>
<path d="M1320.38 240.287C1319.48 239.988 1318.29 240.587 1317.84 241.784C1317.39 242.832 1317.69 244.03 1318.59 244.329C1319.48 244.629 1320.68 244.03 1321.13 242.832C1321.73 241.784 1321.28 240.587 1320.38 240.287Z" fill="#F8B68F"/>
<path d="M1290.19 262.899L1283.16 266.941C1283.16 266.941 1287.49 266.941 1287.64 266.941L1294.97 260.803C1294.97 260.803 1294.37 259.755 1292.73 260.653C1291.23 261.551 1290.19 262.899 1290.19 262.899Z" fill="#F8B68F"/>
<path d="M1326.96 261.098C1326.96 261.098 1344.44 280.56 1344.44 292.238C1344.44 303.916 1330.24 324.426 1330.24 324.426L1323.22 322.33C1323.22 322.33 1329.5 296.879 1329.5 290.142C1329.5 283.405 1316.49 273.524 1316.49 273.524" fill="#63C1C5"/>
<path d="M1329.05 290.142C1329.05 295.98 1323.97 317.24 1322.77 322.18C1323.07 322.33 1323.22 322.33 1323.82 322.479C1325.31 316.341 1330.1 295.831 1330.1 290.142C1330.1 283.255 1317.39 273.523 1316.94 273.074L1316.34 273.823C1316.34 273.972 1329.05 283.704 1329.05 290.142Z" fill="url(#paint4_linear)"/>
<path d="M1294.82 251.368C1294.82 251.368 1295.27 259.003 1289.89 264.393C1289.59 264.692 1288.99 264.992 1288.54 264.992C1287.5 264.992 1286.75 264.542 1286.15 264.243C1285.4 263.944 1284.95 263.345 1284.8 263.045C1284.66 262.746 1284.8 262.297 1285.1 261.997C1286.15 260.65 1289.74 256.308 1288.84 251.967C1291.53 250.17 1294.82 251.368 1294.82 251.368Z" fill="#00666A"/>
<path d="M1285.55 263.946C1285.1 263.646 1284.95 263.496 1284.8 263.047C1284.66 262.748 1284.8 262.299 1285.1 261.999C1286.15 260.652 1289.74 256.31 1288.84 251.969C1289.74 251.37 1290.78 251.07 1291.68 251.07C1291.38 255.711 1289.89 258.706 1285.55 263.946Z" fill="#01898C"/>
<path d="M1289.89 256.904C1289.59 257.952 1288.99 258.701 1288.54 258.551C1288.09 258.401 1288.09 257.503 1288.39 256.455C1288.69 255.407 1289.29 254.658 1289.74 254.808C1290.19 254.958 1290.19 255.856 1289.89 256.904Z" fill="#00666A"/>
<path d="M1289.89 254.806L1289.44 254.656V254.956L1289.74 255.105L1289.89 254.806Z" fill="#F59C42"/>
<path d="M1288.54 258.548L1288.09 258.398H1288.69L1288.54 258.548Z" fill="#E8375E"/>
<path d="M1289.59 256.904C1289.29 257.952 1288.69 258.701 1288.24 258.551C1287.79 258.401 1287.79 257.503 1288.09 256.455C1288.39 255.407 1288.99 254.658 1289.44 254.808C1289.88 254.808 1289.88 255.856 1289.59 256.904Z" fill="#63C1C5"/>
<path d="M1297.36 245.227L1298.11 245.376C1299.75 245.526 1300.8 247.023 1300.65 248.52L1300.35 250.616C1300.2 252.113 1298.71 253.161 1297.21 253.012L1296.46 252.862L1297.36 245.227Z" fill="#00666A"/>
<path d="M1272.1 244.181C1271.35 250.02 1272.1 255.11 1273.74 255.26C1275.39 255.41 1277.33 250.918 1278.08 244.93C1278.83 239.091 1278.08 234.001 1276.43 233.851C1274.79 233.701 1272.85 238.343 1272.1 244.181Z" fill="#212B53"/>
<path d="M1278.68 241.035L1276.14 242.383L1275.69 245.826L1277.93 248.371L1279.27 244.029L1278.68 241.035Z" fill="white"/>
<path d="M1278.08 245.079C1278.68 240.138 1278.23 235.797 1277.18 234.449C1286.3 242.983 1297.96 245.378 1297.96 245.378L1297.06 252.864C1297.06 252.864 1281.22 250.019 1274.64 254.96C1275.99 254.062 1277.48 250.019 1278.08 245.079Z" fill="#FFD247"/>
<path d="M1275.53 244.034C1275.39 244.933 1275.53 245.831 1275.68 245.831C1275.83 245.831 1276.13 245.082 1276.28 244.184C1276.43 243.286 1276.28 242.388 1276.13 242.388C1275.98 242.238 1275.68 243.136 1275.53 244.034Z" fill="#FFD247"/>
<path d="M1285.25 261.4C1285.55 261.55 1286.3 261.999 1289.14 261.999C1291.23 261.999 1292.13 259.454 1292.43 258.106C1292.58 257.657 1292.73 256.909 1292.13 256.609L1288.84 256.16L1285.25 261.4Z" fill="#F8B68F"/>
<path d="M1240.86 290.59L1243.25 293.135L1240.71 307.957L1238.32 309.304L1240.86 290.59Z" fill="url(#paint5_linear)"/>
<path d="M1137.73 309.453C1137.73 309.453 1148.94 331.91 1155.81 333.108C1162.69 334.455 1193.93 323.077 1193.93 323.077V318.586L1162.69 319.334L1155.21 303.914L1137.73 309.453Z" fill="#F4A086"/>
<path d="M1149.83 282.055C1112.77 284.001 1116.95 347.03 1116.95 347.03H1156.71C1156.71 347.03 1163.73 323.974 1149.83 282.055Z" fill="#FFD247"/>
<path d="M1151.03 430.877C1151.03 430.877 1151.03 435.818 1161.04 438.812C1163.14 439.411 1162.39 440.01 1162.84 440.908C1159.55 440.908 1151.33 440.908 1151.33 440.908L1146.84 435.818L1145.5 437.016L1142.21 433.872C1142.21 433.872 1143.71 429.23 1146.25 429.23C1148.19 429.979 1151.03 430.877 1151.03 430.877Z" fill="#212B53"/>
<path d="M1153.57 424.736L1150.88 430.874C1149.24 431.323 1147.29 430.874 1146.25 429.377L1146.1 429.077L1147.59 424.586H1153.57V424.736Z" fill="#F8B68F"/>
<path d="M1143.11 272.027L1141.91 283.705C1141.91 283.705 1143.56 286.849 1147.15 287.148C1150.73 287.597 1151.03 284.903 1151.03 284.903L1151.78 277.267L1146.7 275.321L1143.11 272.027Z" fill="#F4A086"/>
<path d="M1151.92 279.659C1152.97 279.809 1154.02 279.659 1154.62 279.21C1158.35 274.569 1156.26 260.496 1156.26 260.496L1144.6 261.245L1143.26 270.377C1142.96 272.773 1143.7 275.318 1145.5 276.965C1147.14 278.462 1149.53 279.51 1151.92 279.659Z" fill="#F8B68F"/>
<path d="M1149.83 262.144C1149.83 262.144 1153.57 263.342 1157.61 263.042C1161.64 262.743 1159.55 258.102 1159.55 258.102C1159.55 258.102 1156.41 259.15 1151.18 257.802C1147.74 256.904 1146.84 256.156 1144.45 257.054C1141.16 258.401 1141.31 264.09 1141.31 264.09L1141.76 276.217L1142.36 277.115C1142.36 277.115 1143.26 269.33 1143.56 266.935C1144.3 265.887 1145.05 266.037 1145.65 266.336C1146.25 266.636 1146.55 267.384 1146.4 268.133L1145.05 280.409C1145.05 280.409 1152.52 284.601 1154.62 284.302C1156.71 283.853 1156.26 274.57 1156.26 274.57C1156.26 274.57 1154.02 273.373 1152.08 275.169C1150.13 276.966 1148.19 274.72 1148.19 274.72L1149.83 262.144Z" fill="#212B53"/>
<path d="M1144.75 265.739C1145.65 265.739 1146.4 266.637 1146.4 267.835C1146.4 269.033 1145.8 269.931 1144.9 269.781C1144 269.781 1143.26 268.883 1143.26 267.685C1143.11 266.488 1143.86 265.589 1144.75 265.739Z" fill="#F8B68F"/>
<path d="M1156.71 347.031C1156.71 347.031 1175.24 357.361 1184.51 369.937C1186.9 373.081 1186.9 377.423 1184.66 380.717C1171.21 400.03 1153.57 425.63 1153.57 425.63H1146.7C1146.7 425.63 1155.81 392.245 1167.02 372.632C1168.07 365.446 1156.71 347.031 1156.71 347.031Z" fill="#212B53"/>
<path d="M1193.93 318.59L1199.46 319.488L1204.69 325.177C1204.69 325.177 1202.15 326.375 1198.26 322.482C1190.64 321.884 1192.73 320.536 1192.73 320.536L1193.93 318.59Z" fill="#F4A086"/>
<path d="M1131.75 316.043C1131.75 316.043 1142.96 338.5 1149.83 339.698C1156.71 341.045 1186.75 326.224 1186.75 326.224L1187.95 321.433L1156.71 325.924L1149.23 310.504L1131.75 316.043Z" fill="#F8B68F"/>
<path d="M1200.06 433.566C1200.06 433.566 1203.34 436.561 1210.67 438.357C1212.31 438.806 1213.96 438.208 1213.96 440.902C1210.52 440.902 1204.99 440.902 1204.99 440.902L1197.51 439.555V440.902H1193.48C1193.48 440.902 1192.43 434.315 1194.67 433.566C1197.07 433.566 1200.06 433.566 1200.06 433.566Z" fill="#212B53"/>
<path d="M1199.3 428.922L1200.05 433.563C1198.56 434.611 1196.61 434.611 1195.12 433.713L1194.82 433.563L1193.62 428.922H1199.3Z" fill="#F8B68F"/>
<path d="M1199.91 323.827C1199.91 323.378 1199.61 322.779 1199.16 322.63L1194.53 320.833C1193.33 320.384 1192.14 320.384 1190.94 320.833L1186.31 321.731L1185.86 322.63L1185.56 326.971C1186.46 326.672 1187.05 326.372 1187.05 326.372L1190.04 325.923C1190.04 325.923 1196.47 330.265 1198.56 325.324C1199.46 330.115 1200.8 329.516 1200.8 329.516L1199.91 323.827Z" fill="#F8B68F"/>
<path d="M1117.1 347.031C1117.1 347.031 1111.27 371.434 1164.63 379.818C1168.37 380.417 1171.36 383.112 1172.26 386.855C1176.89 404.97 1193.63 430.87 1193.63 430.87H1200.51L1189.3 381.465C1188.55 377.872 1186.61 374.728 1183.91 372.183L1156.71 347.031H1117.1Z" fill="#043C5E"/>
<path d="M1150.28 442.85L1141.32 377.426L1139.67 377.575L1148.64 442.85H1150.28Z" fill="#B0D9C8"/>
<path d="M1152.82 377.574H1113.51C1113.51 377.574 1113.51 374.879 1113.51 369.789C1127.26 363.501 1152.82 373.681 1152.82 373.681V377.574Z" fill="#63C1C5"/>
<path d="M1113.51 376.676V375.029C1113.36 375.029 1107.98 374.88 1107.98 366.196C1107.98 356.764 1113.81 342.542 1113.96 342.392L1112.47 341.793C1112.17 342.392 1106.49 356.465 1106.49 366.196C1106.34 376.526 1113.51 376.676 1113.51 376.676Z" fill="#B0D9C8"/>
<path d="M1122.63 344.337C1112.91 342.091 1111.72 343.289 1111.72 343.289C1111.72 343.289 1114.71 331.911 1111.87 325.024C1123.68 318.137 1125.92 326.371 1125.92 326.371C1125.92 326.371 1128.01 333.408 1122.63 344.337Z" fill="#63C1C5"/>
<path d="M1109.62 442.846L1118.59 377.572L1116.95 377.422L1107.98 442.846H1109.62Z" fill="#B0D9C8"/>
<path d="M1265.52 334.007H1180.47C1180.47 332.36 1181.82 330.863 1183.61 330.863H1262.53C1264.18 331.013 1265.52 332.36 1265.52 334.007Z" fill="#212B53"/>
<path d="M1182.12 442.853L1180.17 442.554L1188.99 334.012L1190.93 334.311L1182.12 442.853Z" fill="#B0D9C8"/>
<path d="M1262.98 442.853L1264.92 442.554L1256.11 334.012L1254.31 334.311L1262.98 442.853Z" fill="#B0D9C8"/>
<path d="M1208.87 329.516H1190.94V331.013H1208.87V329.516Z" fill="url(#paint6_linear)"/>
<path d="M1227.86 330.714H1215.15V328.768H1227.86C1231.3 328.768 1234.28 326.223 1234.73 322.78L1243.4 269.332L1245.35 269.631L1236.68 323.079C1236.08 327.421 1232.34 330.714 1227.86 330.714Z" fill="url(#paint7_linear)"/>
<path d="M1243.4 269.332L1242.06 270.23L1233.98 319.186L1235.03 320.534L1243.4 269.332Z" fill="#212B53"/>
<path d="M895.583 431.625C895.583 431.625 898.573 434.47 905.598 436.266C907.092 436.715 908.736 436.116 908.736 438.662C905.448 438.662 900.217 438.662 900.217 438.662L893.192 437.464V438.662H889.455C889.455 438.662 888.409 432.374 890.651 431.625C892.743 431.625 895.583 431.625 895.583 431.625Z" fill="#212B53"/>
<path d="M895.285 427.133L895.733 431.624C894.388 432.522 892.594 432.672 891.099 431.774L890.8 431.624L889.156 427.133H895.285Z" fill="#F8B68F"/>
<path d="M861.802 431.625C861.802 431.625 864.791 434.47 871.816 436.266C873.311 436.715 874.955 436.116 874.955 438.662C871.667 438.662 866.435 438.662 866.435 438.662L859.41 437.464V438.662H855.674C855.674 438.662 854.627 432.374 856.869 431.625C858.962 431.625 861.802 431.625 861.802 431.625Z" fill="#212B53"/>
<path d="M861.503 427.133L861.952 431.624C860.606 432.522 858.813 432.672 857.318 431.774L857.019 431.624L855.375 427.133H861.503Z" fill="#F8B68F"/>
<path d="M882.131 315.293H891.846L895.284 428.176H888.707L869.426 336.402L882.131 315.293Z" fill="#212B53"/>
<path d="M885.269 315.293L862.55 428.176H855.375L858.364 315.293H885.269Z" fill="#043C5E"/>
<path d="M866.437 343.296L864.195 343.146C864.195 343.146 864.345 341.649 863.149 340.451C862.252 339.553 860.907 339.104 859.113 339.104C857.17 339.104 855.676 339.553 854.779 340.451C853.882 341.349 854.031 342.248 854.031 342.248L851.789 342.397C851.789 342.248 851.64 340.451 853.134 338.954C854.48 337.607 856.423 337.008 859.113 337.008C861.654 337.008 863.448 337.607 864.793 338.954C866.587 340.9 866.437 343.146 866.437 343.296Z" fill="#F7A605"/>
<path d="M875.553 345.844H842.969V366.804H875.553V345.844Z" fill="#212B53"/>
<path d="M860.304 359.917C860.304 361.264 859.707 361.414 858.959 361.414C858.212 361.414 857.614 361.264 857.614 359.917V355.425C848.197 354.377 842.816 352.73 842.816 352.73V353.329V369.349C842.816 370.846 843.414 372.043 844.311 372.043H874.056C874.952 372.043 875.55 370.846 875.55 369.349V352.88C868.824 354.527 868.376 354.527 860.454 355.425V359.917H860.304Z" fill="#FFD247"/>
<path d="M874.056 341.352H844.311C843.414 341.352 842.816 342.549 842.816 344.046V352.131C848.048 353.927 853.13 354.526 857.614 354.676V353.628C857.614 352.281 858.212 352.131 858.959 352.131C859.707 352.131 860.304 352.281 860.304 353.628V354.676C869.123 354.377 875.401 352.131 875.401 352.131V344.046C875.401 342.549 874.803 341.352 874.056 341.352Z" fill="#F7A605"/>
<path d="M860.16 358.565H857.918C857.619 358.565 857.32 358.265 857.32 357.966V356.618C857.32 356.319 857.619 356.02 857.918 356.02H860.31C860.609 356.02 860.908 356.319 860.908 356.618V357.966C860.758 358.415 860.459 358.565 860.16 358.565ZM857.918 356.169C857.619 356.169 857.47 356.319 857.47 356.618V357.966C857.47 358.265 857.619 358.415 857.918 358.415H860.31C860.609 358.415 860.758 358.265 860.758 357.966V356.618C860.758 356.319 860.609 356.169 860.31 356.169H857.918Z" fill="white"/>
<path d="M859.111 357.217C859.111 357.367 859.111 357.367 858.962 357.367C858.813 357.367 858.812 357.367 858.812 357.217V355.271C858.812 355.121 858.813 355.121 858.962 355.121C859.111 355.121 859.111 355.121 859.111 355.271V357.217Z" fill="white"/>
<path d="M939.529 302.267C939.828 302.566 941.174 303.315 944.163 303.614C946.853 303.914 952.683 302.716 951.487 305.261C948.946 306.608 945.957 308.555 945.957 308.555C944.312 309.303 941.323 308.555 939.679 307.806L934.597 304.662C934.597 304.662 934.148 301.818 934.148 301.668L935.344 301.219C936.689 301.818 938.035 302.117 939.529 302.267Z" fill="#F8B68F"/>
<path d="M940.425 303.467C940.425 303.467 940.574 303.617 940.724 303.766C940.425 303.916 939.976 304.066 939.677 304.215C938.332 304.215 936.837 304.365 935.492 304.365C935.642 303.617 935.642 302.419 935.642 302.269L944.909 300.023C944.909 300.023 945.656 300.922 944.012 301.97C942.218 303.317 940.425 303.467 940.425 303.467Z" fill="#F8B68F"/>
<path d="M859.858 328.47L862.848 335.207C862.848 335.207 862.25 338.95 860.904 340.297C860.456 340.746 859.858 340.896 859.26 340.597C857.915 339.998 855.075 338.8 854.627 338.051C854.328 337.752 854.328 337.303 854.477 336.854L855.374 333.859L855.523 326.973L859.858 328.47Z" fill="#F8B68F"/>
<path d="M877.95 247.476V256.458L870.028 256.159L869.43 242.086L877.95 247.476Z" fill="#F4A086"/>
<path d="M879.293 248.375C880.489 248.375 881.385 248.226 881.983 247.776C885.272 243.135 881.535 230.41 881.535 230.41L876.303 228.164L869.727 232.206L869.278 240.74C869.129 242.986 870.324 245.231 872.268 246.579C874.36 247.776 876.752 248.375 879.293 248.375Z" fill="#F8B68F"/>
<path d="M871.521 236.996C871.82 235.498 870.923 232.205 872.418 232.504C873.464 232.654 877.051 232.804 878.397 232.804C881.236 232.804 886.468 231.606 886.468 227.264C886.468 225.019 885.123 223.971 883.777 223.372C882.432 222.773 880.937 224.42 879.592 224.869C876.453 226.067 869.727 226.965 868.083 226.516C866.14 226.067 864.197 228.013 864.047 229.211C863.748 231.756 865.393 235.648 866.738 238.193C867.485 239.69 868.531 240.888 869.578 241.936L871.521 236.996Z" fill="#212B53"/>
<path d="M867.787 237.295C868.385 236.696 869.581 236.846 870.477 237.595C871.374 238.343 871.524 239.391 870.776 239.99C870.178 240.589 868.983 240.439 868.086 239.691C867.338 238.942 867.189 237.894 867.787 237.295Z" fill="#F8B68F"/>
<path d="M873.765 253.766C870.028 253.766 867.039 254.514 864.349 255.712C857.921 258.556 853.288 264.545 851.644 271.432C849.103 282.361 844.768 308.111 854.633 330.718C857.473 331.017 861.21 330.718 861.21 330.718L862.256 277.42L861.509 315.447H892.001V290.894C892.001 290.894 892.748 296.434 900.222 301.524C907.546 306.614 937.141 307.213 937.141 307.213V301.374C937.141 301.374 910.984 292.392 907.097 289.397C903.211 286.403 894.691 264.844 894.691 264.844C892.001 259.604 887.218 255.712 881.388 254.514C878.997 253.915 876.605 253.766 873.765 253.766Z" fill="url(#paint8_linear)"/>
<path d="M861.955 315.598L862.553 278.918H861.806L861.059 315.598H861.955Z" fill="#63C1C5"/>
<path d="M869.879 251.07L869.281 254.065H878.549L877.951 251.07H869.879Z" fill="#FAB746"/>
<path d="M990.05 275.322C990.05 275.322 989.751 309.007 980.932 308.558C972.113 308.109 966.434 281.61 966.434 281.61L970.021 280.562L978.541 296.731C978.541 296.731 977.195 291.491 979.438 281.76C981.53 272.028 990.05 275.322 990.05 275.322Z" fill="#F8B68F"/>
<path d="M988.407 272.027L988.855 272.626C988.706 272.626 979.14 279.214 979.14 289.843V333.11H996.927L996.329 299.724C996.628 299.874 996.777 300.173 997.076 300.323L997.674 333.859H978.542V289.843C978.243 278.764 988.257 272.027 988.407 272.027Z" fill="#63C1C5"/>
<path d="M979.138 342.541H996.327C997.971 342.541 999.316 341.194 999.316 339.547V328.318C999.316 326.672 997.971 325.324 996.327 325.324H979.138C977.494 325.324 976.148 326.672 976.148 328.318V339.547C976.148 341.194 977.494 342.541 979.138 342.541Z" fill="#63C1C5"/>
<path d="M976.148 333.41V328.17C976.148 326.523 977.494 325.176 979.138 325.176H996.327C997.971 325.176 999.316 326.523 999.316 328.17V333.41H976.148Z" fill="#FFDB71"/>
<path d="M978.69 342.542C980.185 342.542 981.381 341.944 981.381 340.446V327.272C981.381 325.775 980.185 325.176 978.69 325.176C977.196 325.176 976 326.373 976 327.272V339.848C976 341.794 977.196 342.542 978.69 342.542Z" fill="#01898C"/>
<path d="M990.499 336.254C990.948 336.254 991.247 335.955 991.247 335.506V331.463C991.247 331.014 990.948 330.715 990.499 330.715C990.051 330.715 989.752 331.014 989.752 331.463V335.506C989.603 335.955 990.051 336.254 990.499 336.254Z" fill="#043C5E"/>
<path d="M970.17 281.163L971.814 274.725C971.814 274.725 970.619 271.581 969.273 270.533C968.825 270.234 968.227 270.234 967.779 270.533C966.732 271.282 964.341 272.779 964.042 273.527C963.892 273.827 963.892 274.276 964.042 274.575L965.387 276.971L966.583 281.462L970.17 281.163Z" fill="#F8B68F"/>
<path d="M997.97 266.789C991.842 266.789 990.347 267.687 990.347 267.687C990.347 267.687 982.425 277.568 979.586 284.006C978.539 286.401 978.539 289.096 979.586 291.492C984.518 301.972 983.771 322.333 983.771 322.333C983.771 322.333 996.924 322.333 1001.86 322.333C1001.26 307.212 1016.8 269.634 997.97 266.789Z" fill="white"/>
<path d="M975.854 428.93L974.807 432.673C974.508 433.721 973.91 434.619 973.014 435.218C972.117 435.817 970.622 436.715 968.23 437.314C971.369 439.709 975.704 437.314 978.096 435.517C979.291 434.619 980.039 433.271 980.338 431.774L980.636 428.93H975.854Z" fill="#F8B68F"/>
<path d="M980.636 430.879C980.636 430.879 982.729 432.376 982.579 434.322C982.43 436.269 982.28 440.91 982.28 440.91H980.337L980.038 436.568C980.038 436.269 976.152 440.91 975.404 440.91H964.792C964.792 440.91 963.895 438.065 970.024 437.167C976.002 436.119 980.636 430.879 980.636 430.879Z" fill="#043C5E"/>
<path d="M983.927 322.332L975.258 429.227L981.237 429.377C981.237 429.377 992.148 406.92 992.447 388.355C992.447 385.211 992.297 382.217 994.091 379.822C1007.84 361.856 1000.82 333.56 1000.82 333.56L991.55 322.482H983.927V322.332Z" fill="#212B53"/>
<path d="M1007.84 428.93L1006.34 432.673C1006.05 433.721 1005.3 434.619 1004.4 435.218C1003.35 435.817 1001.86 436.715 999.469 437.314C1002.31 439.709 1006.94 437.314 1009.63 435.517C1010.98 434.619 1011.87 433.271 1012.17 431.774L1012.77 428.93H1007.84Z" fill="#F8B68F"/>
<path d="M1012.47 430.879C1012.47 430.879 1014.42 432.376 1014.12 434.322C1013.82 436.269 1013.22 440.91 1013.22 440.91H1011.28V436.568C1011.28 436.269 1006.94 440.91 1006.19 440.91H995.582C995.582 440.91 994.835 438.065 1001.11 437.167C1007.39 436.119 1012.47 430.879 1012.47 430.879Z" fill="#043C5E"/>
<path d="M989.453 262.591V274.419L996.478 266.633L995.731 255.555L989.453 262.591Z" fill="#F4A086"/>
<path d="M988.258 245.228C993.191 245.827 995.582 252.264 995.582 252.264V270.978L1004.1 263.493C1004.1 263.493 1004.7 254.959 1002.61 245.827C1000.81 239.988 993.34 238.491 988.258 241.335C985.717 242.683 984.223 245.377 983.326 248.072C982.13 251.665 981.98 255.558 982.877 259.301L985.867 273.074L989.454 269.481C989.454 269.481 990.351 266.038 989.454 262.594C987.511 255.708 984.97 244.779 988.258 245.228Z" fill="#212B53"/>
<path d="M997.078 252.412C996.48 251.814 995.434 251.963 994.836 252.712C994.088 253.311 993.939 254.359 994.537 254.808C995.135 255.407 996.181 255.257 996.779 254.508C997.526 253.91 997.676 253.011 997.078 252.412Z" fill="#F8B68F"/>
<path d="M987.363 262.744C986.466 262.744 985.569 262.594 985.121 262.145C982.43 257.803 985.569 245.826 985.569 245.826L989.904 243.73L995.434 247.623L995.733 255.558C995.883 257.654 994.837 259.75 993.192 261.097C991.548 262.145 989.456 262.744 987.363 262.744Z" fill="#F8B68F"/>
<path d="M987.362 244.479C986.316 248.072 995.733 252.114 995.733 252.114L998.124 247.623L993.79 242.383L988.409 243.281C988.259 243.281 987.512 243.88 987.362 244.479Z" fill="#212B53"/>
<path d="M987.213 245.227C987.063 246.574 984.821 248.371 984.821 248.371L984.672 246.724L985.12 245.526L986.167 244.927C986.316 244.927 987.512 243.879 987.213 245.227Z" fill="#212B53"/>
<path d="M1002.01 322.332C1002.01 322.332 1019.65 329.818 1010.68 376.378C1010.08 379.073 1010.53 381.918 1011.28 384.613C1015.16 397.638 1012.92 429.377 1012.92 429.377H1006.94C1006.94 429.377 987.064 346.436 985.719 322.332C997.826 322.332 1002.01 322.332 1002.01 322.332Z" fill="#043C5E"/>
<path d="M947.151 301.973C946.852 302.123 945.806 302.572 943.564 302.123C941.471 301.823 937.585 299.727 937.735 302.123C939.379 303.769 941.023 305.865 941.023 305.865C942.069 306.764 944.461 306.764 945.806 306.464L950.141 304.967C950.141 304.967 951.038 302.871 951.038 302.721L950.29 302.123C949.393 302.272 948.347 302.272 947.151 301.973Z" fill="#F8B68F"/>
<path d="M946.253 302.869C946.253 302.869 946.103 303.019 945.954 303.019C946.253 303.169 946.402 303.468 946.552 303.618C947.598 303.917 948.644 304.217 949.691 304.516C949.84 303.917 949.989 302.869 949.989 302.869L943.712 299.426C943.712 299.426 942.964 300.025 944.011 301.222C945.057 302.27 946.253 302.869 946.253 302.869Z" fill="#F8B68F"/>
<path d="M1003.95 273.527C997.522 266.79 985.116 283.408 980.631 288.199C979.735 289.097 978.838 289.845 977.642 290.295L948.047 301.823L949.841 304.817L982.575 297.78C983.92 297.481 985.116 296.882 986.162 296.133C992.44 292.391 1010.38 280.264 1003.95 273.527Z" fill="#F8B68F"/>
<path d="M981.679 297.63L967.031 300.774L967.33 301.372L981.829 298.378C983.174 298.079 984.37 297.63 985.566 296.881C988.854 294.935 994.085 291.042 998.868 287C998.719 286.85 998.57 286.7 998.42 286.551C993.338 290.593 987.808 294.785 985.267 296.282C984.22 296.881 983.025 297.33 981.679 297.63Z" fill="#F4A086"/>
<defs>
<linearGradient id="paint0_linear" x1="343.94" y1="307.978" x2="251.291" y2="307.978" gradientUnits="userSpaceOnUse">
<stop stop-color="#E0F0EB"/>
<stop offset="1" stop-color="#C0E4EF"/>
</linearGradient>
<linearGradient id="paint1_linear" x1="546.414" y1="341.257" x2="593.658" y2="341.257" gradientUnits="userSpaceOnUse">
<stop stop-color="#C0E4EF"/>
<stop offset="1" stop-color="#E0F0EB"/>
</linearGradient>
<linearGradient id="paint2_linear" x1="546.156" y1="338.291" x2="600.441" y2="338.291" gradientUnits="userSpaceOnUse">
<stop stop-color="#C0E4EF"/>
<stop offset="1" stop-color="#E0F0EB"/>
</linearGradient>
<linearGradient id="paint3_linear" x1="1299.81" y1="295.507" x2="1298.79" y2="295.507" gradientUnits="userSpaceOnUse">
<stop stop-color="#E0F0EB"/>
<stop offset="1" stop-color="#C0E4EF"/>
</linearGradient>
<linearGradient id="paint4_linear" x1="1330.01" y1="297.738" x2="1316.21" y2="297.738" gradientUnits="userSpaceOnUse">
<stop stop-color="#E0F0EB"/>
<stop offset="1" stop-color="#C0E4EF"/>
</linearGradient>
<linearGradient id="paint5_linear" x1="1237.41" y1="300.176" x2="1243.92" y2="299.543" gradientUnits="userSpaceOnUse">
<stop stop-color="#E0F0EB"/>
<stop offset="1" stop-color="#C0E4EF"/>
</linearGradient>
<linearGradient id="paint6_linear" x1="1190.87" y1="330.225" x2="1208.73" y2="330.225" gradientUnits="userSpaceOnUse">
<stop stop-color="#E0F0EB"/>
<stop offset="1" stop-color="#C0E4EF"/>
</linearGradient>
<linearGradient id="paint7_linear" x1="1215.23" y1="299.964" x2="1245.28" y2="299.964" gradientUnits="userSpaceOnUse">
<stop stop-color="#E0F0EB"/>
<stop offset="1" stop-color="#C0E4EF"/>
</linearGradient>
<linearGradient id="paint8_linear" x1="905.742" y1="247.926" x2="875.422" y2="356.638" gradientUnits="userSpaceOnUse">
<stop stop-color="#E0F0EB"/>
<stop offset="1" stop-color="#C0E4EF"/>
</linearGradient>
</defs>
</svg>
